<?xml version="1.0" encoding="UTF-8" standalone="no"?><!DOCTYPE svg PUBLIC "-//W3C//DTD SVG 1.1//EN" "http://www.w3.org/Graphics/SVG/1.1/DTD/svg11.dtd"><svg width="100%" height="100%" viewBox="0 0 96 96" version="1.1" xmlns="http://www.w3.org/2000/svg" xmlns:xlink="http://www.w3.org/1999/xlink" xml:space="preserve" xmlns:serif="http://www.serif.com/" style="fill-rule:evenodd;clip-rule:evenodd;stroke-linejoin:round;stroke-miterlimit:2;"><rect x="0" y="0" width="96" height="96" style="fill:#f5f7fa;"/><path d="M63,38c0,8.229 -6.771,15 -15,15c-8.229,0 -15,-6.771 -15,-15c0,-8.229 6.771,-15 15,-15c8.229,0 15,6.771 15,15Z" style="fill:#616e7c;fill-rule:nonzero;"/><path d="M8,48c-0,-21.943 18.057,-40 40,-40c21.943,-0 40,18.057 40,40c0,21.943 -18.057,40 -40,40c-21.943,0 -40,-18.057 -40,-40Zm40,-35c-19.2,0.001 -34.998,15.8 -34.998,35c-0,7.94 2.701,15.648 7.658,21.85c3.55,-5.72 11.365,-11.85 27.34,-11.85c15.975,0 23.785,6.125 27.34,11.85c4.957,-6.202 7.658,-13.91 7.658,-21.85c0,-19.2 -15.798,-34.999 -34.998,-35Z" style="fill:#616e7c;"/></svg>