<svg xmlns="http://www.w3.org/2000/svg" style="isolation:isolate" viewBox="0 0 25.887 34.645" width="25.887" height="34.645"><defs><clipPath id="a"><path d="M0 0h25.887v34.645H0z"/></clipPath></defs><g clip-path="url(#a)"><path d="M25.861 16.595C25.319 7.744 15.678.085 11.707.001 7.733-.085.308 9.289.008 18.813c-.282 8.931 7.34 15.055 10.621 15.832.091-4.202.428-19.671.484-21.475.118-3.687.299-9.422.915-9.613.353-.109.834 3.115.776 5.021-.013.363-.017 1.541-.017 3.212.665-.676 1.358-1.377 1.78-1.792 1.156-1.136 1.668-1.001 1.113.013-.341.623-1.81 2.696-2.89 4.199.006 3.029.02 6.843.034 10.396 1.525-1.785 3.392-3.925 4.373-4.876 2.057-1.994 2.276-1.743 1.304.35-.596 1.283-3.513 4.704-5.666 7.403.013 3.153.024 5.804.026 7.069 5.775-1.27 13.531-9.266 13-17.957z" fill-rule="evenodd" fill="#52606D"/></g></svg>