<svg xmlns="http://www.w3.org/2000/svg" viewBox="0 0 60 60"><path d="M30 1.5c-16.542 0-30 12.112-30 27 0 5.205 1.647 10.246 4.768 14.604-.591 6.537-2.175 11.39-4.475 13.689a1 1 0 0 0 .847 1.697c.405-.057 9.813-1.412 16.617-5.338C21.622 54.711 25.738 55.5 30 55.5c16.542 0 30-12.112 30-27s-13.458-27-30-27zm0 52c-3.487 0-6.865-.57-10.075-1.68 4.075-2.546 4.085-2.727 4.081-3.316a1.02 1.02 0 0 0-.492-.861.997.997 0 0 0-1.337.29c-.549.435-2.906 1.947-5.016 3.249-4.464 2.696-10.475 4.201-13.809 4.88 2.202-3.669 3.091-8.986 3.441-13.16a1.001 1.001 0 0 0-.192-.677C3.591 38.143 2 33.398 2 28.5c0-13.785 12.561-25 28-25s28 11.215 28 25-12.56 25-28 25z"/></svg>